<?xml version="1.0" encoding="UTF-8" standalone="no"?>
<!-- Created with Inkscape (http://www.inkscape.org/) -->

<svg
   xmlns:dc="http://purl.org/dc/elements/1.1/"
   xmlns:cc="http://creativecommons.org/ns#"
   xmlns:rdf="http://www.w3.org/1999/02/22-rdf-syntax-ns#"
   xmlns:svg="http://www.w3.org/2000/svg"
   xmlns="http://www.w3.org/2000/svg"
   xmlns:sodipodi="http://sodipodi.sourceforge.net/DTD/sodipodi-0.dtd"
   xmlns:inkscape="http://www.inkscape.org/namespaces/inkscape"
   version="1.1"
   id="svg77"
   width="1333.3333"
   height="1440"
   viewBox="0 0 1333.3333 1440"
   sodipodi:docname="egg.svg"
   inkscape:version="0.92.4 (5da689c313, 2019-01-14)">
  <metadata
     id="metadata83">
    <rdf:RDF>
      <cc:Work
         rdf:about="">
        <dc:format>image/svg+xml</dc:format>
        <dc:type
           rdf:resource="http://purl.org/dc/dcmitype/StillImage" />
        <dc:title></dc:title>
      </cc:Work>
    </rdf:RDF>
  </metadata>
  <defs
     id="defs81" />
  <sodipodi:namedview
     pagecolor="#ffffff"
     bordercolor="#666666"
     borderopacity="1"
     objecttolerance="10"
     gridtolerance="10"
     guidetolerance="10"
     inkscape:pageopacity="0"
     inkscape:pageshadow="2"
     inkscape:window-width="1325"
     inkscape:window-height="946"
     id="namedview79"
     showgrid="false"
     inkscape:zoom="0.40625"
     inkscape:cx="666.66663"
     inkscape:cy="720"
     inkscape:window-x="0"
     inkscape:window-y="0"
     inkscape:window-maximized="0"
     inkscape:current-layer="svg77" />
  <path
     style="fill:#000000;stroke-width:1.73054957"
     d="m 637.00806,1437.4663 c -3.57301,-0.3545 -16.10169,-1.4284 -27.84153,-2.3866 C 395.66882,1417.655 204.9399,1310.8161 117.52445,1159.6807 60.55435,1061.1832 35.636914,926.9218 48.729492,788.99612 65.19687,615.51804 156.98485,409.61073 293.27479,240.40952 345.08972,176.08235 392.32639,127.48785 431.90885,97.790462 494.15602,51.088493 558.76831,21.927775 625.87144,10.25152 c 30.73001,-5.347163 82.70892,-5.403235 112.71689,-0.121606 98.38163,17.315923 184.3434,74.510756 270.14977,179.744646 30.6538,37.59423 72.0794,95.67385 109.1218,152.99157 183.5873,284.0736 226.1089,559.17177 120.2987,778.28717 -12.6257,26.1458 -38.1895,70.1958 -52.6643,90.7477 -39.6693,56.3243 -104.8124,113.1693 -169.8415,148.2069 -73.79289,39.7596 -153.35432,63.887 -245.3867,74.4151 -21.57114,2.4675 -116.84171,4.5719 -133.25804,2.9433 z m 118.52633,-13.8369 c 24.16657,-2.1166 24.239,-2.1566 34.41609,-18.9921 20.99721,-34.7349 31.07233,-94.1367 22.39959,-132.0655 -8.5468,-37.3781 -34.7087,-60.0346 -69.3233,-60.0346 -15.3894,0 -25.71826,2.9422 -59.48524,16.944 -36.54072,15.1522 -55.67758,18.0244 -85.12584,12.7762 -45.25844,-8.0661 -83.80166,-34.4845 -121.04223,-82.9654 -37.91078,-49.3534 -52.51045,-64.1858 -81.65858,-82.9602 -94.70758,-61.002 -138.58067,-87.18402 -156.60276,-93.45573 -39.80853,-13.85338 -76.37443,-7.52135 -108.16712,18.73113 -14.56853,12.0299 -28.13218,28.2763 -37.675172,45.1271 l -5.770106,10.1887 5.767476,16.8978 c 16.801002,49.2246 48.448852,105.227 80.670272,142.7501 116.92621,136.1653 312.35785,214.0189 526.17803,209.6125 18.88583,-0.3891 43.82433,-1.5384 55.41889,-2.554 z M 479.23943,1212.5372 c -7.60406,-6.6101 -9.13022,-10.7798 -5.19707,-14.1986 3.89277,-3.384 7.92359,-2.1248 15.94723,4.9822 8.08053,7.1572 9.40413,10.4131 5.58354,13.7341 -3.93314,3.4192 -8.72963,2.0924 -16.3337,-4.5177 z m -50.69645,-43.9675 c -1.38788,-1.9966 -7.17411,-10.528 -12.85831,-18.9585 -23.62988,-35.0466 -52.91969,-65.1681 -81.70024,-84.0203 -8.08744,-5.2976 -22.77276,-12.9256 -32.63407,-16.9515 -9.86128,-4.0258 -20.01772,-8.2093 -22.56987,-9.2965 -5.50607,-2.3461 -6.92624,-7.7552 -2.8148,-10.7213 3.8081,-2.7475 13.12585,-0.4276 33.22606,8.2721 39.3975,17.0518 74.08446,45.167 104.79871,84.9433 14.4787,18.7506 28.12695,39.8732 28.12695,43.5304 0,6.9726 -9.41062,9.1926 -13.57443,3.2023 z m 400.09821,244.8284 c 30.12406,-5.9111 61.58581,-14.3931 89.3103,-24.0772 38.02292,-13.2814 82.85241,-33.48 82.85241,-37.3301 0,-1.0249 -2.59008,-4.6858 -5.7557,-8.1355 -13.73706,-14.9706 -19.92175,-33.3749 -16.50983,-49.1294 3.34821,-15.4607 9.87093,-24.5052 27.49223,-38.121 28.6405,-22.1304 37.3857,-33.855 49.1157,-65.8497 12.8617,-35.0812 21.9179,-49.4714 40.5922,-64.5007 30.9156,-24.8812 77.7967,-31.4791 115.9065,-16.3124 5.766,2.2947 11.536,4.1723 12.8221,4.1723 2.9455,0 18.9041,-36.3018 27.663,-62.9262 13.5635,-41.2296 23.2746,-89.50863 27.2614,-135.53305 4.0812,-47.11353 0.5563,-118.33644 -8.4645,-171.03005 -4.1565,-24.2793 -14.0273,-66.70143 -15.9203,-68.42125 -0.9429,-0.85664 -5.8459,1.38038 -11.8486,5.40609 -22.9463,15.38893 -47.9871,18.96326 -68.9761,9.8455 -15.2129,-6.60844 -23.1405,-13.76217 -50.6549,-45.71013 -24.5298,-28.48228 -44.281,-46.54911 -83.2795,-76.17775 -37.4887,-28.48156 -51.9677,-48.71145 -59.92789,-83.73031 -3.08079,-13.55357 -2.66788,-41.71542 0.80103,-54.63259 9.47156,-35.2688 32.76606,-52.43997 94.76106,-69.85191 16.2819,-4.57293 29.8968,-9.07943 30.2555,-10.01444 1.3076,-3.41037 -68.8999,-104.70641 -97.5724,-140.77836 C 940.83532,125.35195 877.59316,72.499174 808.69742,43.526784 747.84876,17.938384 685.69681,11.335518 620.77642,23.562547 c -26.90526,5.067308 -75.79337,20.635185 -79.01032,25.159979 -0.59683,0.839415 4.17707,4.533681 10.60862,8.209466 14.92623,8.530728 31.94292,24.352165 39.46507,36.693075 8.10339,13.294513 12.64754,26.422893 19.2527,55.622263 7.33008,32.40406 13.15656,46.75365 29.26026,72.06287 20.9684,32.9548 23.25794,38.06183 24.14193,53.85038 1.2889,23.0201 -9.18847,48.58636 -29.09726,71.00135 -17.12821,19.28442 -37.69599,31.77372 -86.14441,52.30913 -20.67851,8.76484 -38.99744,17.90956 -50.72646,25.32245 -49.08847,31.02455 -73.04739,41.79496 -100.68621,45.26219 -26.98522,3.38518 -54.41232,-4.59688 -88.86728,-25.863 -9.97035,-6.15382 -20.6505,-12.29927 -23.73365,-13.65666 -9.20978,-4.05439 -25.09939,-5.82812 -43.69431,-4.87747 -15.36417,0.78547 -30.26327,-0.36823 -48.4853,-3.7544 -4.57295,-0.8498 -5.44716,-0.1215 -10.68808,8.90354 -16.97942,29.23946 -44.89478,88.68649 -62.21659,132.49311 -33.723186,85.28521 -52.290944,161.60938 -58.675729,241.19082 -2.766645,34.48387 -1.241813,112.49467 2.823105,144.43321 5.096889,40.04662 14.897827,85.53345 18.659313,86.59905 1.020851,0.2892 4.153676,-3.0302 6.961819,-7.3764 8.419355,-13.031 25.161112,-30.48876 38.257522,-39.8938 22.35186,-16.05168 44.0328,-23.14233 70.86104,-23.17471 37.49282,-0.0444 57.65309,9.015 148.67227,66.81561 21.06955,13.3801 45.29166,28.6817 53.82693,34.0038 23.73988,14.8028 46.5426,35.7021 65.63337,60.1549 35.26272,45.1671 44.05199,55.4798 56.52171,66.3196 31.51334,27.3943 63.43614,40.5263 98.51584,40.5263 20.2528,0 29.46416,-2.3764 63.60513,-16.4098 33.52888,-13.7814 50.61229,-17.465 68.58772,-14.7882 34.22788,5.0965 59.73319,28.4176 70.06292,64.0627 12.4828,43.0748 2.16545,104.1738 -25.5788,151.4764 -1.3039,2.2231 8.91276,1.2471 29.7519,-2.8422 z m 74.43225,-37.1559 c -1.20911,-2.7389 1.69274,-17.1027 6.00575,-29.7277 2.07179,-6.0645 3.67109,-8.1251 6.30643,-8.1251 1.9419,0 3.97879,0.6304 4.52644,1.4006 1.03203,1.4515 -6.97314,34.2908 -9.0821,37.2571 -1.78722,2.5139 -6.50778,2.0241 -7.75652,-0.8049 z m 37.43075,-123.3344 c -1.26011,-1.7724 2.4561,-14.2668 5.16888,-17.3784 0.96719,-1.1093 3.4366,-2.0169 5.48774,-2.0169 3.24713,0 3.60202,0.7826 2.7447,6.0506 -1.58154,9.7196 -4.59119,14.9249 -8.62914,14.9249 -2.00673,0 -4.15421,-0.7112 -4.77218,-1.5802 z m -47.27808,-3.6637 c 0.0423,-1.9967 1.53095,-9.0758 3.30908,-15.7316 2.65508,-9.938 3.92644,-12.1884 7.11213,-12.5898 2.13343,-0.2686 4.32292,0.5171 4.86552,1.746 1.24597,2.8225 -3.98838,25.4882 -6.50995,28.1889 -3.24392,3.4746 -8.86176,2.4417 -8.77678,-1.6135 z m 70.40457,-60.9924 c -3.03454,-4.929 -1.56585,-10.4046 2.79064,-10.4046 4.89681,0 8.16159,7.6531 4.77704,11.1981 -3.21791,3.3706 -5.12738,3.1702 -7.56768,-0.7935 z m -364.61393,-7.9016 c -0.5986,-0.8419 -1.59986,-7.2966 -2.22501,-14.3439 -1.04478,-11.7775 -0.83139,-12.9552 2.64002,-14.5702 2.80846,-1.3066 4.25793,-1.2487 5.65394,0.226 1.54421,1.6312 3.17345,20.5908 2.42346,28.202 -0.23184,2.3527 -6.89423,2.7339 -8.49241,0.4861 z m 281.81632,-8.9466 c -3.5541,-8.0512 4.23712,-30.6666 10.56494,-30.6666 3.30525,0 3.18713,5.4895 -0.45153,20.9714 -1.91557,8.1503 -3.52829,11.4369 -5.79895,11.8171 -1.72992,0.2897 -3.6714,-0.6652 -4.31446,-2.1219 z m 151.64483,-26.5682 c -1.9374,-1.0409 -2.2942,-4.1746 -1.5051,-13.2191 1.1833,-13.5608 4.2638,-20.7288 8.9086,-20.7288 4.7799,0 5.289,2.9641 2.4985,14.547 -1.3863,5.7542 -2.5378,12.0068 -2.5592,13.8949 -0.05,4.3564 -3.9868,7.3091 -7.3428,5.506 z m -506.7107,-11.1556 c -2.13424,-3.4666 -2.66071,-22.8432 -0.78598,-28.9276 0.81288,-2.6383 2.28493,-3.5735 5.07892,-3.2268 3.72251,0.4617 3.93428,1.3986 3.93428,17.4074 0,14.5726 -0.43318,16.9921 -3.12293,17.4423 -1.71762,0.2876 -4.01455,-0.9253 -5.10429,-2.6953 z m 430.4957,-31.6607 c -1.86622,-1.9549 -1.46776,-4.4613 2.09285,-13.1625 4.6204,-11.2912 9.1486,-15.6289 12.90569,-12.3629 1.58052,1.374 1.063,4.6196 -2.05206,12.8716 -5.72067,15.1542 -8.22365,17.6006 -12.94648,12.6538 z m -342.14676,-0.2749 c -0.68058,-0.5914 -1.23741,-6.7859 -1.23741,-13.7652 0,-13.3641 2.36247,-16.9097 8.37609,-12.5711 3.45167,2.4901 3.872,22.5735 0.5332,25.476 -2.46441,2.1422 -5.7708,2.5131 -7.67188,0.8603 z m 214.99839,-15.0858 c -22.2673,-3.8591 -40.95811,-13.8331 -61.6314,-32.8884 -30.92325,-28.5031 -46.4819,-64.34826 -44.01547,-101.40621 2.57085,-38.62743 20.21103,-61.22537 79.66145,-102.05091 34.80391,-23.90031 48.50399,-35.31172 81.36266,-67.77058 46.36944,-45.80549 76.95995,-69.64239 103.31943,-80.50935 15.8463,-6.53271 37.8264,-7.84133 50.3644,-2.99856 22.0478,8.51608 36.572,28.54703 47.0965,64.95269 12.8529,44.46105 17.5701,119.44175 9.288,147.6343 -4.0491,13.78328 -15.9346,33.85925 -26.8461,45.34649 -9.7822,10.29842 -27.2826,23.1623 -49.277,36.22155 -12.8851,7.65048 -21.53908,13.71208 -62.36512,43.68268 -40.90432,30.028 -63.87603,42.1259 -91.52432,48.2007 -15.3795,3.3791 -23.09238,3.7242 -35.43303,1.5856 z m 36.32112,-13.8693 c 24.7039,-6.3753 45.48166,-18.323 94.00499,-54.0556 19.17682,-14.1218 43.60356,-30.92978 54.28186,-37.35107 60.5881,-36.43499 75.5284,-64.92226 70.4347,-134.30056 -7.2227,-98.37942 -29.928,-142.81324 -71.0886,-139.12044 -27.76473,2.49103 -55.87622,22.14442 -117.32712,82.02624 -35.45366,34.54837 -49.48442,46.05526 -92.61237,75.9535 -34.53167,23.93893 -51.9423,41.42694 -60.55505,60.82399 -6.18271,13.92428 -7.03532,42.03723 -1.81955,59.9957 11.80482,40.64534 45.97499,76.38184 82.54295,86.32704 10.73541,2.9198 30.20126,2.7817 42.13819,-0.2988 z m 25.94304,-35.2267 c -4.57239,-4.7893 -1.21209,-9.6124 14.10655,-20.2479 8.31565,-5.7735 27.87967,-17.36794 43.47565,-25.76568 42.78851,-23.03955 55.11001,-34.4696 75.24591,-69.8025 8.975,-15.74848 11.3314,-18.08083 16.5194,-16.35025 5.8941,1.9662 5.0095,7.98161 -3.5031,23.81723 -18.5683,34.5408 -33.8352,48.78061 -77.71545,72.4862 -30.28787,16.3624 -47.59724,27.0502 -55.08056,34.0097 -5.03177,4.6796 -9.71506,5.3446 -13.0484,1.8532 z M 1045.7216,879.83565 c -4.4238,-3.84552 -1.1081,-19.44246 4.5332,-21.32432 1.5338,-0.51164 4.4856,-0.14099 6.5594,0.82384 3.3721,1.56892 3.6325,2.71902 2.4643,10.88525 -0.7185,5.02211 -1.6898,9.67574 -2.1585,10.3413 -1.3374,1.89928 -8.935,1.41536 -11.3984,-0.72607 z m 142.9199,169.41645 c -3.6033,-3.1324 -2.6036,-6.8964 3.605,-13.5735 16.3326,-17.5653 28.6428,-50.26169 38.5188,-102.30696 7.1661,-37.76431 9.4758,-64.17171 9.4758,-108.33773 0,-33.02628 0.213,-35.2166 3.5778,-36.78201 4.8743,-2.26764 9.2129,-0.51696 10.5968,4.27595 0.6324,2.19044 0.7021,26.25217 0.1548,53.47062 -1.0999,54.71323 -3.1879,70.88394 -15.1383,117.25452 -8.1432,31.5969 -14.168,47.92381 -23.5188,63.73291 -12.0824,20.4277 -21.0058,27.7132 -27.2719,22.2662 z m -699.36989,-32.7904 c -3.30846,-11.4589 4.11971,-33.98577 10.14017,-30.75126 2.64678,1.42201 0.85649,29.57106 -2.08638,32.80466 -2.98704,3.282 -6.79354,2.3116 -8.05379,-2.0534 z M 128.44883,897.92707 c -2.24151,-3.6409 -9.76144,-44.10593 -13.79669,-74.24087 -7.12683,-53.22254 -8.28403,-117.46502 -2.84826,-158.12205 2.39206,-17.89148 8.46929,-49.70885 11.14355,-58.34208 2.06567,-6.6686 7.59291,-9.3663 12.27276,-5.99009 3.33792,2.40814 2.98233,6.84854 -2.77589,34.66565 -6.32997,30.57918 -8.42575,54.77088 -8.37091,96.6263 0.0572,43.61772 3.06973,77.07359 11.06985,122.93451 7.42849,42.58402 7.30677,41.03582 3.42078,43.50595 -4.75502,3.02248 -7.80855,2.70928 -10.11519,-1.03732 z m 351.80634,-22.70863 c -28.1304,-3.76756 -44.79036,-11.93333 -70.89889,-34.75069 -33.05326,-28.88659 -53.76065,-59.15588 -61.12428,-89.34916 -7.51791,-30.82592 0.9654,-76.49697 20.21804,-108.84668 11.03477,-18.54141 25.82165,-31.60245 45.25607,-39.97381 13.99101,-6.02662 17.38079,-6.81525 31.88657,-7.41814 22.80274,-0.94764 37.7786,3.02409 83.7615,22.21449 20.92754,8.7339 42.22629,17.04706 47.33057,18.47378 29.4803,8.24005 51.43857,27.35616 62.46007,54.37578 24.18311,59.28596 -3.78449,128.6298 -66.48865,164.8543 -28.96646,16.73413 -63.28904,24.31927 -92.401,20.42013 z m 50.95509,-15.81163 c 26.12386,-7.29132 56.229,-26.92221 73.44004,-47.88871 19.30221,-23.51391 28.64554,-48.75321 28.64554,-77.3806 0,-28.88623 -8.17714,-50.92222 -24.66698,-66.47333 -11.31234,-10.66826 -21.33729,-16.06237 -42.64222,-22.94419 -10.44973,-3.37537 -30.69294,-11.22735 -44.98493,-17.44893 -45.65295,-19.87328 -64.25746,-24.02336 -85.99397,-19.18254 -15.7813,3.51456 -25.88151,8.96589 -38.72299,20.90006 -15.55635,14.45728 -26.33754,34.95473 -32.81638,62.39136 -12.74946,53.99134 3.5358,94.73793 56.1588,140.51232 22.62508,19.6805 32.97758,25.54703 52.83357,29.93927 13.69516,3.02941 43.63529,1.79376 58.74952,-2.42471 z m 59.44852,-80.03584 c -2.3792,-2.492 -1.15632,-13.65122 2.08368,-19.01434 1.96802,-3.25751 7.24433,-3.70405 10.48453,-0.88738 3.57335,3.10625 2.65803,13.28758 -1.61959,18.01478 -4.33409,4.78976 -7.63425,5.35853 -10.94862,1.88694 z m -16.04895,-54.51108 c -15.75506,-27.11679 -35.64948,-46.96647 -56.04002,-55.9142 -18.36586,-8.05926 -32.8046,-10.30731 -60.29181,-9.38712 -19.21671,0.64341 -24.26126,0.34669 -26.44944,-1.5555 -7.47368,-6.49675 -1.5087,-10.00537 20.30883,-11.94578 38.14797,-3.39257 67.01979,3.80316 94.87711,23.64641 10.8057,7.69709 28.94302,28.58044 37.19774,42.82957 6.82989,11.78958 7.71113,15.77945 4.16596,18.86126 -4.61718,4.01372 -8.79056,2.03287 -13.76837,-6.53464 z m 134.74885,118.95576 c -1.84834,-1.93594 -1.90088,-4.76846 -0.24699,-13.31129 4.0875,-21.11268 7.084,-26.28036 13.30196,-22.9397 2.0406,1.09623 1.93013,3.47388 -0.63235,13.61127 -1.70763,6.7556 -3.10479,14.29524 -3.10479,16.7548 0,4.18216 -2.84928,8.34425 -5.71227,8.34425 -0.69167,0 -2.31419,-1.10665 -3.60556,-2.45933 z M 289.2984,811.31602 c -1.59721,-1.38837 -1.3605,-16.68644 0.42709,-27.60206 1.65613,-10.11296 4.24146,-13.1501 8.5486,-10.04276 2.39087,1.72489 2.74159,4.28115 1.86122,13.56565 -2.13979,22.56665 -2.7891,25.15484 -6.3104,25.15484 -1.80901,0 -3.84595,-0.48405 -4.52651,-1.07567 z m 493.23825,-1.1599 c -2.01606,-4.56711 0.15444,-15.97948 3.37245,-17.73246 5.4591,-2.97374 7.49542,0.71094 6.0295,10.91018 -1.07169,7.45638 -1.93071,9.05785 -4.85847,9.05785 -1.95611,0 -4.00069,-1.00597 -4.54348,-2.23557 z m 361.58595,-13.2226 c -1.8491,-2.87233 4.2924,-40.89676 6.9831,-43.2358 3.2071,-2.788 7.4669,0.40781 7.4669,5.60176 0,7.86322 -5.7844,35.90432 -7.8734,38.16746 -2.5012,2.70971 -4.5984,2.53956 -6.5766,-0.53342 z m 94.2893,-38.56571 c -3.4717,-3.63616 -4.7641,-17.98573 -1.8909,-20.99506 2.8809,-3.01767 8.1573,-3.13735 10.9162,-0.24747 1.1452,1.19959 2.2914,6.82664 2.5474,12.5045 0.4516,10.02354 0.3256,10.33769 -4.3341,10.80841 -2.7054,0.27349 -5.8634,-0.62973 -7.2386,-2.07038 z M 716.73714,729.96852 c -2.6292,-4.27061 -1.18342,-15.93542 2.20041,-17.75337 4.69288,-2.52129 7.35336,1.90047 6.7831,11.27356 -0.60761,9.9871 -4.9125,13.09226 -8.98351,6.47981 z m 72.84244,-5.02791 c -2.55819,-2.22383 -2.93794,-12.33933 -0.58443,-15.56756 0.87233,-1.1967 3.1565,-1.91646 5.07588,-1.59965 6.24253,1.03042 5.29032,19.1034 -1.00651,19.1034 -0.6917,0 -2.25991,-0.87129 -3.48494,-1.93619 z m -38.22272,-26.43187 c -0.61966,-1.40374 -1.12664,-7.96112 -1.12664,-14.57211 0,-12.67659 2.4589,-16.17044 8.37611,-11.90151 3.47196,2.50482 3.89828,24.16435 0.53319,27.08957 -3.08804,2.6844 -6.44295,2.4189 -7.78266,-0.61595 z m -458.00057,-9.42548 c -1.17083,-2.23388 -1.50633,-6.4273 -0.78252,-9.78115 1.04987,-4.86479 1.96451,-5.78459 5.33749,-5.36735 3.36286,0.41604 4.1709,1.71643 4.64795,7.4801 0.85991,10.38934 -5.15136,15.39825 -9.20292,7.6684 z m -40.61655,-12.31453 c -1.25225,-2.03408 -1.57765,-6.87032 -0.84131,-12.50462 1.775,-13.58176 2.51213,-15.09222 7.0884,-14.52553 3.80127,0.47075 3.98111,1.19004 3.35156,13.40533 -0.82184,15.9462 -4.74288,21.51188 -9.59865,13.62482 z m 448.67734,-34.81338 c -1.59457,-1.38607 -1.73569,-21.93507 -0.17486,-25.47067 1.42099,-3.21904 7.92319,-3.33872 9.32129,-0.1716 0.57799,1.30934 0.34297,7.65436 -0.5223,14.09994 -1.14824,8.55371 -2.34964,11.84825 -4.44782,12.19651 -1.58106,0.26249 -3.46036,-0.0314 -4.17622,-0.65418 z m -396.52593,-5.23062 c -2.8996,-4.70977 -2.53732,-19.03454 0.5071,-20.05008 4.82386,-1.6092 6.78124,1.58091 7.24822,11.81295 0.39239,8.59728 -0.0544,10.43338 -2.65104,10.89746 -1.71763,0.30689 -4.01456,-0.89029 -5.10428,-2.66033 z m 489.83172,-41.40381 c -2.68001,-2.8071 -1.38149,-43.38693 1.74827,-54.63486 2.03212,-7.30318 5.54322,-9.89357 9.15529,-6.75476 2.01646,1.75238 2.10582,4.36357 0.46403,13.56204 -1.11831,6.2655 -2.03329,18.74278 -2.03329,27.72718 0,20.02598 -3.07779,26.65367 -9.3343,20.1004 z m -521.52541,-1.57254 c -2.5965,-2.71962 -1.49614,-14.64473 1.5996,-17.33577 1.03279,-0.89779 3.18681,-1.19572 4.78672,-0.66207 5.17862,1.72744 2.89232,20.43357 -2.49742,20.43357 -0.85994,0 -2.60995,-1.09613 -3.8889,-2.43573 z M 136.23192,563.59153 c -6.35958,-5.52829 1.85324,-35.44664 10.00914,-36.46205 7.50039,-0.93385 9.23766,3.59925 5.74555,14.99166 -1.72326,5.62196 -3.13321,12.04732 -3.13321,14.27866 0,7.03743 -7.73131,11.44275 -12.62148,7.19173 z M 604.21074,529.0912 c -1.65492,-3.74894 3.96749,-28.53094 8.12539,-35.8144 3.76,-6.58654 7.40275,-8.35223 9.13505,-4.42794 0.99617,2.25663 -3.91046,24.77292 -8.26754,37.93949 -1.58527,4.79037 -7.25401,6.24203 -8.9929,2.30285 z m 59.57613,-67.01619 c -1.74494,-2.45436 2.92262,-18.78018 6.00502,-21.00388 4.43917,-3.20271 8.31626,1.34504 6.91015,8.10547 -2.41126,11.59306 -9.09649,18.26952 -12.91517,12.89841 z m 91.9199,-116.56595 c -23.77735,-5.57459 -40.08578,-22.82616 -43.68096,-46.20717 -0.75199,-4.89042 0.45431,-13.83885 3.69517,-27.41114 7.28295,-30.50001 6.71822,-38.56316 -4.83258,-68.99696 -9.08905,-23.94765 -9.6499,-26.38563 -9.74306,-42.35203 -0.0879,-15.08927 0.44289,-17.9466 4.85582,-26.13289 19.2723,-35.751578 79.40178,-47.530859 129.78056,-25.42382 51.49635,22.59741 64.86824,89.58004 31.67089,158.64568 -20.99998,43.68951 -51.72743,72.51936 -83.43988,78.287 -12.12376,2.20497 -17.48831,2.12753 -28.30596,-0.40867 z m 40.92598,-16.32655 c 13.15171,-5.80582 30.10791,-21.16768 41.39576,-37.50346 41.19039,-59.61063 45.41264,-126.33233 10.10171,-159.63292 -33.67124,-31.75427 -107.81255,-29.01363 -127.8144,4.72464 -9.46347,15.96259 -8.37601,29.7285 5.12809,64.91499 8.01375,20.88073 8.66901,23.80894 8.66555,38.72376 -10e-4,10.82998 -1.31968,21.03632 -4.00614,31.04259 -8.48557,31.60612 -2.40861,49.14209 20.53905,59.26853 8.53442,3.76611 11.47017,4.23576 22.78913,3.64572 9.43033,-0.49158 15.79171,-1.9129 23.20125,-5.18385 z m 4.08344,-33.43029 c -3.50071,-3.04312 -2.73,-5.15821 4.95001,-13.58457 13.21247,-14.49649 18.669,-26.96264 24.19741,-55.28211 3.85482,-19.74634 6.54002,-24.25131 12.73678,-21.3684 5.73656,2.66884 5.94966,4.95751 2.21467,23.78718 -4.26809,21.51724 -7.9407,32.3892 -15.19739,44.98849 -11.02292,19.13832 -22.10546,27.36712 -28.90148,21.45941 z m 24.71753,-132.52214 c -4.88567,-6.48182 -5.85712,-15.69272 -1.91911,-18.1959 4.65404,-2.9583 9.56585,-0.31315 13.1098,7.06002 4.15244,8.63919 2.9765,13.9737 -3.21741,14.59556 -3.6327,0.36472 -5.79922,-0.57536 -7.97328,-3.45968 z m 188.76538,143.23458 c -8.928,-5.43597 -11.8014,-16.78615 -4.8376,-19.10909 4.3237,-1.44231 8.6965,1.30119 13.2164,8.29217 3.7324,5.77288 3.8412,6.62252 1.2592,9.82717 -3.3687,4.18085 -4.2487,4.27121 -9.638,0.98975 z m -22.1768,-47.8218 c -1.0821,-1.15415 -4.1257,-6.57931 -6.76356,-12.05591 -8.58308,-17.81963 -23.02778,-37.06408 -42.78519,-57.00237 -11.00253,-11.10324 -12.63775,-16.55591 -5.99967,-20.0059 2.94284,-1.52952 5.22206,-0.0955 16.40992,10.32496 23.6595,22.03666 50.0551,60.6718 50.5031,73.92126 0.1775,5.24896 -0.3618,6.0034 -4.59798,6.43144 -2.6395,0.26671 -5.68442,-0.45936 -6.76662,-1.61348 z M 663.90731,200.47564 c -0.45415,-1.10928 -0.21912,-9.64061 0.5223,-18.95852 1.32742,-16.68293 1.41887,-16.94164 5.98826,-16.94164 4.6304,0 4.63956,0.0308 4.30935,14.52141 -0.18208,7.98678 -1.20539,16.5181 -2.27418,18.95852 -1.99855,4.56325 -7.07921,6.00213 -8.54573,2.42023 z m -28.41733,-78.47602 c -1.69122,-0.9086 -2.1783,-6.25058 -1.79385,-19.67297 0.49257,-17.197078 0.77529,-18.425669 4.23997,-18.425669 3.45792,0 3.74797,1.226987 4.23444,17.912209 0.53208,18.25015 -1.10079,23.18416 -6.68056,20.18643 z m 67.99375,-35.180687 c -0.73594,-3.263815 1.68511,-27.611704 3.05772,-30.750655 1.17115,-2.678261 7.77349,-2.588156 8.97006,0.122433 0.51939,1.176614 -0.0216,8.981866 -1.20219,17.345013 -1.92861,13.661985 -2.55371,15.256259 -6.15709,15.703443 -2.67486,0.331932 -4.22966,-0.474095 -4.6685,-2.420234 z m -30.54858,-1.327198 c -1.74783,-3.959445 3.39255,-45.754968 6.0033,-48.811683 2.18933,-2.563324 2.64111,-2.581671 5.40184,-0.219356 2.69557,2.306577 2.78924,4.768964 0.88977,23.395593 -1.1676,11.44975 -2.87196,22.451376 -3.78749,24.448069 -1.8965,4.136114 -6.89762,4.834103 -8.50742,1.187377 z M 1032.9127,1335.6292 c 55.7258,-34.138 106.187,-80.8982 141.6835,-131.2924 14.2182,-20.1851 43.3717,-70.5966 43.3717,-74.9967 0,-2.6915 -2.4432,-4.4427 -10.6726,-7.6497 -14.1987,-5.5333 -24.6939,-7.489 -40.4443,-7.5366 -25.4125,-0.077 -46.3519,7.3546 -64.1713,22.7736 -14.2505,12.3312 -22.0814,25.2046 -33.2791,54.7087 -14.0081,36.91 -18.7439,43.7941 -46.5673,67.6925 -12.9147,11.0926 -24.93488,22.6768 -26.71168,25.7427 -4.74312,8.1842 -5.70212,23.7823 -2.04942,33.3317 3.10222,8.1106 18.2077,26.4405 21.789,26.4405 1.1058,0 8.779,-4.1465 17.0515,-9.2143 z m 23.9455,-41.1267 c -1.225,-1.0649 -2.2273,-3.1817 -2.2273,-4.7042 0,-1.5224 11.5263,-12.8129 25.6142,-25.0898 27.1672,-23.6753 41.3767,-40.1401 58.4498,-67.7275 11.2679,-18.2072 14.7368,-20.8931 19.9096,-15.4153 4.2653,4.5166 3.6043,6.3966 -9.4728,26.9378 -18.528,29.1037 -47.9978,60.7276 -73.8963,79.2976 -12.6627,9.0795 -14.7613,9.8448 -18.3772,6.7014 z m 103.1066,-130.4992 c -4.6723,-2.3655 -3.9998,-8.5276 1.557,-14.2684 5.5723,-5.7566 8.2317,-6.152 12.675,-1.884 2.9396,2.8237 2.9671,3.483 0.331,7.9147 -3.068,5.157 -7.9834,10.0121 -10.0555,9.9314 -0.6927,-0.027 -2.7212,-0.7892 -4.5075,-1.6937 z m 60.2639,-484.30802 c 14.0182,-5.57973 29.2929,-17.93769 29.2929,-23.6993 0,-12.94221 -34.72,-105.08175 -58.2684,-154.63196 -22.2184,-46.75181 -67.4341,-127.86382 -75.0814,-134.68817 -2.9934,-2.67121 -4.3652,-2.49343 -27.2422,3.53015 -66.0637,17.39476 -86.3102,31.47967 -94.6958,65.87677 -5.7401,23.54575 -1.2091,56.43517 10.8026,78.4138 8.8683,16.22684 20.7017,27.80983 57.6281,56.40878 37.7037,29.20075 45.3271,36.43822 75.881,72.03903 22.7706,26.53183 34.3391,36.46773 46.7031,40.11213 9.0086,2.65535 23.3191,1.28019 34.9801,-3.36123 z M 1092.5718,579.12194 c -44.7201,-23.39001 -72.501,-58.76379 -78.9708,-100.55447 -2.3457,-15.15153 -1.3882,-20.2932 4.2693,-22.92532 6.3266,-2.94325 10.768,3.00399 10.8026,14.46501 0.1107,36.70771 30.6577,77.12357 74.617,98.72321 11.8279,5.81182 14.6917,9.49604 10.6621,13.71655 -3.5576,3.72656 -9.5389,2.76839 -21.3802,-3.42498 z m -64.5451,-148.58949 c -4.8113,-4.18245 4.152,-19.68115 13.9219,-24.07305 4.755,-2.13748 5.5157,-2.05652 8.9812,0.95599 2.9621,2.57494 3.3707,3.96602 1.8775,6.39141 -1.0498,1.7051 -2.7731,3.56466 -3.8299,4.13239 -1.0568,0.56773 -3.986,3.87547 -6.5097,7.35056 -4.3532,5.99467 -10.8591,8.35645 -14.441,5.2427 z m -616.26647,23.48076 c 21.28902,-5.70655 30.43873,-10.33283 77.68776,-39.28046 11.87062,-7.27266 34.40229,-18.58636 53.82695,-27.02779 58.75223,-25.53218 78.87564,-40.00882 94.76476,-68.17305 19.38164,-34.35495 18.32821,-49.90405 -5.85235,-86.38309 C 610.64843,200.65496 606.20408,189.93494 596.30263,146.59293 589.65682,117.50188 584.1562,104.05992 573.47881,90.817988 560.26762,74.433672 530.55638,55.856357 520.92455,57.9578 c -7.81519,1.705107 -52.91665,28.998605 -74.16688,44.88271 -74.48961,55.67931 -165.66011,163.23615 -237.50258,280.18966 -13.0391,21.2266 -14.01145,23.44288 -11.31381,25.7879 2.42376,2.10695 9.66329,2.73399 40.50317,3.50811 46.2405,1.16069 47.31313,1.4653 82.5504,23.44366 15.65611,9.76504 33.05244,17.56135 44.31417,19.8596 13.20262,2.69445 32.93057,2.00795 46.45121,-1.61623 z M 576.8873,250.03602 c -3.15256,-2.74048 -6.18551,-10.89334 -7.91001,-21.26283 -1.03592,-6.22905 -0.71724,-6.95938 3.82124,-8.75695 4.03897,-1.59974 5.41805,-1.53673 7.48366,0.34188 3.81193,3.46681 10.10522,26.43855 8.09745,29.55728 -2.11306,3.28227 -7.78679,3.34182 -11.49234,0.12054 z m -16.65085,-56.86353 c -0.48976,-0.68889 -3.13276,-9.94628 -5.87332,-20.57199 -2.74054,-10.62569 -7.09702,-23.91221 -9.68104,-29.52558 -5.17594,-11.2438 -18.58088,-28.13368 -24.52276,-30.898 -5.03618,-2.343 -4.97753,-9.05845 0.0996,-11.42055 3.22103,-1.498525 5.02441,-1.116331 10.38927,2.20187 9.78511,6.05219 22.19407,21.4346 28.23016,34.99466 4.20733,9.45179 15.02209,45.80834 15.02209,50.50059 0,3.89185 -11.44263,7.84366 -13.66415,4.719 z"
     id="path87"
     inkscape:connector-curvature="0"
     sodipodi:nodetypes="ccssssssssccsccccssccccccccssccscccscscscccsscccsccssscscsscccccccscsssccsssssssccccccsssccccscccsccsccccscscccscsccscccccsccccccccssccsccsccccccscccsccccsccccssccccsccccccccsscsscscccsccccscccccccccccsccccscsccscssscscsccccssccccsccssscccccsscsccccccscccccccccccssccccsscsccssccsccccccccccsccccsccsccccscsccccsccccccccscscsccccsccccsccccscscccsccscscsscsssssssssscsscscsssssccccccccccccsscccccccsccccsssccscccccccsccscscccscccsscscccsscccsccccsccsscsccccscscccccsccsccssssssssscsccccsccccccsscccsscc" />
</svg>
