<?xml version="1.0" encoding="UTF-8" standalone="no"?>
<!-- Created with Inkscape (http://www.inkscape.org/) -->

<svg
   xmlns:dc="http://purl.org/dc/elements/1.1/"
   xmlns:cc="http://creativecommons.org/ns#"
   xmlns:rdf="http://www.w3.org/1999/02/22-rdf-syntax-ns#"
   xmlns:svg="http://www.w3.org/2000/svg"
   xmlns="http://www.w3.org/2000/svg"
   xmlns:sodipodi="http://sodipodi.sourceforge.net/DTD/sodipodi-0.dtd"
   xmlns:inkscape="http://www.inkscape.org/namespaces/inkscape"
   version="1.1"
   id="svg77"
   width="970.66669"
   height="728"
   viewBox="0 0 970.66669 728"
   sodipodi:docname="triceratops.svg"
   inkscape:version="0.92.4 (5da689c313, 2019-01-14)">
  <metadata
     id="metadata83">
    <rdf:RDF>
      <cc:Work
         rdf:about="">
        <dc:format>image/svg+xml</dc:format>
        <dc:type
           rdf:resource="http://purl.org/dc/dcmitype/StillImage" />
        <dc:title></dc:title>
      </cc:Work>
    </rdf:RDF>
  </metadata>
  <defs
     id="defs81" />
  <sodipodi:namedview
     pagecolor="#ffffff"
     bordercolor="#666666"
     borderopacity="1"
     objecttolerance="10"
     gridtolerance="10"
     guidetolerance="10"
     inkscape:pageopacity="0"
     inkscape:pageshadow="2"
     inkscape:window-width="1386"
     inkscape:window-height="867"
     id="namedview79"
     showgrid="false"
     inkscape:zoom="0.55425823"
     inkscape:cx="485.33334"
     inkscape:cy="364"
     inkscape:window-x="0"
     inkscape:window-y="0"
     inkscape:window-maximized="0"
     inkscape:current-layer="svg77" />
  <path
     style="fill:#000000;stroke-width:1.50466132"
     d="m 638.11077,622.59993 c 8.53104,-3.20819 8.26567,-4.55538 -9.44172,-47.93108 -3.20723,-7.85634 -5.29481,-15.83921 -5.9511,-22.75697 -0.55603,-5.86058 -1.79715,-12.35536 -2.75809,-14.43284 -2.69966,-5.83656 -12.73721,-17.86175 -17.07664,-20.45818 -5.74958,-3.44013 -6.11412,-8.43902 -2.09168,-28.68226 1.97819,-9.95534 4.21981,-23.12631 4.9814,-29.26883 1.41846,-11.44037 3.08781,-14.88083 7.67337,-15.81442 2.18798,-0.44547 3.37966,2.23057 7.331,16.46236 3.93921,14.18807 4.57892,18.49228 3.87403,26.06606 -0.97374,10.46245 -1.17808,9.91039 12.81744,34.62782 16.40932,28.98041 16.60488,29.57893 16.18217,49.5295 -0.5886,27.78004 2.27214,32.44111 21.62346,35.23143 17.81845,2.5693 22.58112,2.37847 24.20054,-0.96972 1.28298,-2.65258 1.49318,-2.65258 4.02643,0 3.02253,3.16494 13.61032,3.86035 15.14113,0.99449 0.6441,-1.20583 3.33913,-1.41275 8.1258,-0.62387 13.6639,2.25191 18.82237,1.79473 22.06348,-1.95536 1.81784,-2.10332 2.96838,-5.38996 2.89744,-8.27683 -0.14415,-5.86583 -7.10225,-25.11947 -13.50033,-37.35643 -2.60497,-4.98228 -6.14391,-14.52112 -7.86429,-21.19744 -4.64496,-18.02571 -7.54431,-23.75138 -13.93837,-27.52567 -3.06706,-1.81043 -5.57648,-4.30989 -5.57648,-5.55439 0,-1.24447 -2.83262,-6.10235 -6.29472,-10.79526 -3.4621,-4.6929 -6.29472,-9.38576 -6.29472,-10.42857 0,-1.04281 1.82823,-6.56125 4.06271,-12.26323 6.34482,-16.19074 8.92029,-28.49762 9.07983,-43.38801 l 0.14632,-13.65419 4.76506,-1.42886 c 7.74265,-2.32174 10.90415,-0.43644 14.98854,8.93807 3.85168,8.84035 19.17879,32.54095 25.27121,39.07735 5.61214,6.0211 15.15927,10.8034 24.58947,12.31722 8.22694,1.32067 9.15505,1.93186 16.41356,10.80908 10.03392,12.27156 14.79449,16.05654 23.17963,18.42943 9.01626,2.55148 14.32446,5.63971 19.55853,11.37893 2.34875,2.57541 7.38452,5.96427 11.19062,7.53076 10.63669,4.37783 10.90679,4.74189 7.55646,10.18592 -2.79287,4.53817 -2.70413,7.98993 0.20541,7.98993 2.57352,0 16.08384,-12.56125 22.78317,-21.18272 8.57763,-11.03862 11.44938,-17.78928 12.6771,-29.80013 0.84042,-8.22182 1.8038,-10.70383 6.28217,-16.18504 19.55353,-23.93213 40.97099,-74.07284 33.82327,-79.18411 -0.87464,-0.62546 -4.33766,2.39267 -7.94649,6.92566 -3.51795,4.4188 -8.71557,9.79783 -11.5503,11.95339 -24.9057,18.93864 -32.61807,24.15208 -34.49567,23.31841 -1.17259,-0.52061 -2.13196,-1.79839 -2.13196,-2.8395 0,-1.04112 -2.41537,-4.92481 -5.36749,-8.63043 -4.33148,-5.43708 -5.53558,-8.37973 -6.23839,-15.24569 -0.57359,-5.60372 -2.04907,-10.12824 -4.32222,-13.25397 -3.66867,-5.04469 -5.74484,-14.61961 -7.1776,-33.10197 -0.86061,-11.10152 -0.79176,-11.42518 3.42017,-16.08322 3.64392,-4.02985 4.29844,-5.94979 4.29844,-12.60893 0,-5.44921 0.90255,-9.26772 2.94665,-12.46671 2.66829,-4.17585 2.80011,-5.4021 1.39529,-12.98123 -1.0323,-5.56944 -1.09128,-9.36448 -0.17624,-11.34275 2.62966,-5.68518 13.80045,-15.53748 35.62262,-31.41802 30.98448,-22.54814 41.84959,-35.20143 53.70748,-62.54661 9.17468,-21.1575 12.05751,-32.34515 8.33468,-32.34515 -1.12683,0 -4.43923,4.01591 -7.36089,8.92423 -11.99485,20.15106 -30.84346,35.55818 -55.59035,45.44041 -14.10244,5.63155 -31.03248,15.80671 -34.61844,20.80609 -3.04808,4.24948 -5.65963,3.01944 -5.65963,-2.66566 0,-3.59285 -1.31741,-6.75577 -4.2938,-10.3089 l -4.29382,-5.12579 10.53568,-24.08431 c 12.27096,-28.05105 17.63551,-43.7582 17.63551,-51.63581 0,-10.2679 -4.1201,-7.07658 -13.99974,10.84379 -14.28888,25.91824 -28.13393,46.80623 -36.42552,54.95511 -10.26931,10.09255 -22.84963,17.11297 -50.32066,28.08134 -12.67762,5.06181 -30.38717,13.34696 -39.35451,18.41146 -14.08415,7.95431 -16.9169,9.0245 -20.80329,7.85927 -8.11323,-2.4325 -11.76635,2.00857 -4.17192,5.07177 5.37315,2.16723 4.35701,5.74431 -2.83827,9.99153 -8.29202,4.89459 -13.93356,16.5019 -13.93356,28.66789 0,7.77621 2.97065,6.02871 4.952,-2.91302 1.87872,-8.47858 5.805,-17.69466 7.53837,-17.69466 0.67534,0 1.55834,3.45955 1.96222,7.6879 1.81555,19.00786 3.3132,22.54724 11.42526,27.0012 4.98126,2.73496 9.09283,1.97397 9.09283,-1.68295 0,-3.88723 4.19997,-2.45468 5.63853,1.92321 1.70975,5.20322 4.56007,4.37904 4.77802,-1.38155 0.36807,-9.72868 12.80589,-19.94877 52.93358,-43.49527 25.20521,-14.79015 28.74312,-17.39249 37.88311,-27.86529 5.54484,-6.35337 10.92042,-13.91865 11.94574,-16.81173 2.23756,-6.31358 4.84321,-6.6968 7.97164,-1.17242 2.14127,3.78122 2.14368,4.30658 0.0323,7.00609 -1.25543,1.6051 -2.2826,4.79862 -2.2826,7.09672 0,3.37722 -1.67626,5.38127 -8.74268,10.45228 -4.80846,3.45066 -10.4737,7.14197 -12.58944,8.2029 -4.02283,2.01726 -4.89638,4.99204 -2.33588,7.95463 1.0517,1.21688 1.08372,3.53814 0.10533,7.63804 -2.20253,9.22955 2.29782,22.01276 7.74959,22.01276 1.06595,0 3.74887,1.54904 5.96206,3.44229 4.49377,3.84413 12.34606,3.3077 15.47703,-1.05736 0.94095,-1.31171 2.26314,-2.38493 2.93829,-2.38493 2.46029,0 1.14056,6.93561 -2.19162,11.51756 -2.95623,4.06502 -3.22066,5.36044 -1.95303,9.56776 1.1633,3.86116 0.99611,5.69609 -0.80958,8.88471 -2.86872,5.0658 -5.52517,5.11919 -7.48183,0.15035 -0.95571,-2.42695 -4.03609,-4.96078 -8.26777,-6.8008 -3.70951,-1.61295 -8.63298,-4.23952 -10.94105,-5.83681 -5.18883,-3.59092 -13.28884,-3.92672 -13.28884,-0.55089 0,1.38585 2.29262,3.07966 5.53624,4.09023 3.04494,0.94868 5.88495,2.37771 6.31118,3.17564 0.4262,0.79793 3.93054,2.66351 7.78742,4.14575 9.34937,3.59302 11.72043,9.0998 13.86316,32.19702 1.51529,16.33394 4.71524,28.22217 8.28332,30.77369 0.69042,0.4937 1.69807,4.99768 2.23917,10.0088 0.8127,7.52613 1.93622,10.30658 6.45821,15.9828 6.13041,7.69515 6.78694,12.16086 2.6767,18.20679 -1.5387,2.26335 -2.79765,5.83778 -2.79765,7.94318 0,4.51989 0.0463,4.50706 -5.0857,1.41019 -2.20367,-1.32978 -4.79351,-2.42227 -5.75521,-2.42775 -2.83495,-0.0162 -2.00198,4.23432 1.39884,7.13797 2.15943,1.84375 2.59851,2.96411 1.39881,3.56929 -2.73766,1.38101 -2.05135,6.65734 1.20972,9.3002 3.82993,3.10389 6.83354,1.699 6.83354,-3.19628 0,-2.13018 0.62948,-3.87309 1.39883,-3.87309 0.76935,0 1.39882,0.59723 1.39882,1.32718 0,0.72994 2.26644,4.39081 5.03652,8.13526 4.19653,5.67261 4.74299,7.21728 3.27658,9.26169 -2.90352,4.04795 0.49623,6.69217 5.68865,4.42445 2.294,-1.00188 4.44973,-1.29958 4.7905,-0.66158 1.62948,3.05057 -2.31718,13.85126 -8.25888,22.60178 -8.2398,12.13503 -10.53337,13.42238 -10.53337,5.91227 0,-4.42279 -1.00423,-6.45968 -4.96221,-10.06485 -2.7292,-2.48593 -6.19809,-6.80354 -7.70862,-9.59466 -2.69544,-4.98059 -6.60253,-6.95612 -11.45893,-5.79395 -3.86811,0.92566 -2.85062,4.84444 1.54808,5.96228 2.22476,0.56538 4.82104,2.79915 5.85727,5.03943 1.02369,2.21315 3.94651,5.51508 6.49517,7.33761 4.23145,3.02588 5.92498,7.4904 3.78194,9.97 -1.47764,1.70969 -14.63741,-5.18482 -20.65233,-10.81996 -7.20995,-6.75469 -12.24692,-9.65185 -21.15989,-12.17072 -7.77903,-2.19839 -14.35356,-7.31935 -18.91699,-14.73455 -2.47488,-4.02148 -2.70709,-5.36023 -1.27586,-7.35556 2.91309,-4.0613 -0.19785,-5.5747 -14.28668,-6.95012 -18.32978,-1.78944 -25.09547,-6.18311 -37.24652,-24.18807 -14.62767,-21.67471 -17.53876,-30.40258 -10.45501,-31.34566 2.29008,-0.30487 3.84676,-1.49458 3.84676,-2.93988 0,-3.57355 -22.05397,-4.13478 -34.43591,-0.8763 -5.21402,1.37215 -11.73648,2.49481 -14.49441,2.49481 -6.22236,0 -14.47072,-3.85024 -15.61045,-7.2868 -0.47016,-1.41759 0.47145,-7.25204 2.09245,-12.96544 1.62101,-5.71339 2.60938,-11.40687 2.19636,-12.65218 -1.06906,-3.22347 -6.88465,-5.93966 -12.71727,-5.93966 -4.21426,0 -6.68288,-1.76111 -15.8028,-11.27373 -5.94459,-6.20056 -12.49619,-12.01625 -14.55914,-12.92374 -2.06294,-0.90751 -4.0934,-2.93551 -4.51214,-4.50667 -0.41876,-1.57118 -2.60602,-7.22663 -4.8606,-12.56769 -2.25457,-5.34107 -4.09898,-10.49447 -4.09868,-11.45203 3e-4,-0.95754 -1.57314,-3.45156 -3.49654,-5.54225 -1.92338,-2.0907 -3.49706,-4.79717 -3.49706,-6.01438 0,-1.21722 -1.88841,-6.88651 -4.19647,-12.59841 -4.70841,-11.65214 -5.0872,-17.05778 -2.09824,-29.94231 1.13576,-4.89597 2.07717,-11.45091 2.09199,-14.56653 0.0355,-7.4536 9.60687,-40.14767 15.57503,-53.20134 2.59282,-5.67104 8.8457,-15.21821 13.89528,-21.21589 13.89047,-16.49849 26.04139,-20.77421 60.76025,-21.38055 20.47733,-0.35762 46.87069,2.87713 60.84896,7.45762 4.23147,1.38659 9.17005,2.52971 10.97468,2.54029 1.80463,0.0109 4.952,1.37653 6.99414,3.03546 2.04214,1.65895 6.61788,4.48774 10.16827,6.2862 3.7577,1.90347 8.14181,5.86075 10.4912,9.46979 8.08767,12.42399 15.41817,20.07183 19.23897,20.07183 3.35479,0 3.68112,-0.56718 3.68112,-6.39786 0,-9.21268 -2.37313,-13.95872 -8.3345,-16.66816 -3.96924,-1.80401 -5.42395,-3.52368 -6.05139,-7.15352 -1.48177,-8.57242 -5.26015,-12.19073 -13.67956,-13.10006 -6.08358,-0.65702 -8.64678,-1.90201 -12.81497,-6.22434 -6.42584,-6.66349 -10.24383,-7.86126 -17.67662,-5.54551 -6.09874,1.90014 -9.27766,0.90124 -12.81169,-4.02576 -1.61674,-2.25398 -3.78476,-2.48055 -14.68665,-1.53484 -11.38154,0.98732 -13.42586,0.7341 -18.56518,-2.29954 -8.1911,-4.83503 -17.10504,-4.48758 -25.53503,0.99535 -6.12401,3.98308 -7.22364,4.21531 -11.49608,2.42775 -7.4994,-3.1377 -13.53966,-2.43003 -18.78722,2.20103 -3.92807,3.46661 -5.64984,3.99859 -10.11599,3.12554 -6.54468,-1.27935 -16.2894,1.50578 -17.44348,4.98552 -0.46378,1.39841 -0.84324,3.92986 -0.84324,5.62547 0,2.03274 -1.78686,3.94654 -5.24559,5.61825 -2.88509,1.39444 -6.98352,4.46137 -9.10762,6.81542 l -3.86201,4.28008 -5.92977,-6.71708 c -8.88679,-10.0667 -13.92287,-11.89436 -31.98733,-11.60857 -13.79165,0.21821 -15.71484,-0.10403 -18.46619,-3.09479 -1.68917,-1.83611 -6.21074,-4.9639 -10.04793,-6.95067 -5.92266,-3.06656 -9.25321,-3.58469 -22.04478,-3.42955 l -15.06807,0.18277 -7.74043,-7.83722 c -12.19344,-12.34589 -15.42628,-13.59457 -31.8152,-12.28854 l -13.94369,1.11118 -4.67769,-5.24581 c -3.97378,-4.45638 -5.93295,-5.35086 -13.01908,-5.94392 -7.0818,-0.5927 -9.68026,0.0268 -17.20809,4.10273 -6.96255,3.76986 -9.60549,4.47814 -12.30687,3.29812 -7.27421,-3.17747 -19.7594,-4.64631 -24.40742,-2.87142 -2.57088,0.98172 -7.9697,6.04516 -12.36493,11.59683 -5.85585,7.39658 -8.42043,9.5795 -10.28291,8.75256 -1.36472,-0.60595 -8.48286,-1.52477 -15.81808,-2.04183 -12.99886,-0.91628 -13.45056,-0.82927 -17.83024,3.43473 -2.47142,2.40616 -5.88127,7.23177 -7.57741,10.72358 -3.38597,6.97063 -3.49208,7.03249 -16.57411,9.66247 -17.59429,3.53709 -24.90496,9.56857 -28.1855,23.25376 -2.03366,8.48375 -2.12789,8.57942 -13.7793,13.99397 -12.60471,5.85754 -15.26486,8.91542 -21.94045,25.22084 l -6.14942,15.02021 -13.34718,7.66502 c -16.56074,9.51048 -23.64148,16.65954 -26.80887,27.06757 -2.19357,7.20804 -3.00271,8.13166 -9.62785,10.99016 -3.97815,1.71645 -9.1713,5.41467 -11.54032,8.21828 -3.95262,4.67774 -4.3073,5.99986 -4.3073,16.05595 0,6.80353 -0.66296,11.58705 -1.74853,12.61637 -0.9617,0.91185 -3.8085,3.56827 -6.32625,5.90315 -6.21564,5.76419 -7.51538,9.08468 -8.77227,22.41094 -0.94565,10.02632 -1.56539,11.82434 -5.05452,14.66445 -2.18719,1.78036 -6.65197,6.23657 -9.92173,9.90269 -5.33276,5.97922 -5.94503,7.44864 -5.94503,14.26829 0,9.95723 -1.50713,12.85227 -8.82465,16.9509 -3.34095,1.87131 -8.70212,6.00481 -11.91373,9.18556 -5.44758,5.3952 -5.84075,6.34474 -5.86073,14.15417 -0.0112,4.60408 -0.48388,9.15402 -1.04911,10.11101 -0.56525,0.95701 -4.90345,4.7619 -9.64044,8.45537 -10.34485,8.0659 -13.830202,12.87852 -15.129304,20.89084 -1.189842,7.33846 -4.01873,13.93814 -9.322061,21.74807 -2.202659,3.24372 -4.004827,6.9708 -4.004827,8.2824 0,3.2417 -19.799452,24.84826 -29.73501,32.44892 -4.429259,3.38838 -11.620446,7.98603 -15.980406,10.21702 -4.359974,2.231 -9.476156,5.46609 -11.369314,7.18912 -1.893158,1.723 -4.495842,3.13276 -5.783756,3.13276 -1.2879142,0 -3.5635392,1.07865 -5.0569539,2.39701 -4.52567997,3.99513 0.00837,5.58414 13.3105769,4.66465 22.228152,-1.53649 48.444305,-10.63766 80.112012,-27.81157 18.591103,-10.08225 25.672623,-16.41619 52.194583,-46.68443 11.57161,-13.20609 25.86063,-28.343 31.75342,-33.63757 12.31487,-11.06468 33.21559,-25.30335 44.4258,-30.26517 8.90873,-3.94316 27.08014,-5.98623 28.56234,-3.21137 0.52981,0.99192 -1.21942,6.36175 -3.88724,11.93298 -5.36225,11.19805 -9.28801,25.02482 -9.28801,32.7129 0,3.21421 -2.73433,10.17976 -7.65131,19.49126 -4.20821,7.9693 -8.01418,16.40133 -8.45772,18.73785 -0.44353,2.33649 0.19268,9.3307 1.41378,15.54264 1.7316,8.80895 1.87407,12.33538 0.64738,16.02474 -2.89265,8.69979 -3.32154,32.83723 -0.78625,44.25127 3.34758,15.07107 6.8038,20.75143 13.88242,22.8161 3.21618,0.93807 10.56863,3.4618 16.33878,5.60828 5.77016,2.14647 13.63857,3.98089 17.48535,4.07649 3.84676,0.0957 10.14148,0.27931 13.98826,0.40829 20.08087,0.6733 29.71512,-4.11494 27.89695,-13.86484 -1.14707,-6.15114 -5.18174,-15.68891 -10.39646,-24.57673 -2.08916,-3.5607 -4.11705,-8.46582 -4.50642,-10.90024 -1.00701,-6.29609 2.33643,-26.53828 5.91304,-35.79937 1.6686,-4.32054 3.90072,-14.05182 4.96028,-21.62508 2.1323,-15.24092 2.7196,-16.44678 11.36035,-23.32538 7.34955,-5.85072 15.95534,-20.20171 19.28853,-32.16543 1.36405,-4.89596 2.95844,-9.50832 3.54308,-10.24969 0.58464,-0.74138 3.98375,1.23165 7.55356,4.38447 3.56982,3.15283 8.83674,6.17296 11.70423,6.71137 2.8675,0.53843 7.41678,1.87245 10.10953,2.96454 4.28901,1.73943 5.03898,2.88023 6.05037,9.20309 4.13018,25.82111 5.87537,32.18771 13.67412,49.88463 5.78424,13.12557 8.25204,20.56528 8.25204,24.8774 0,5.20602 0.99825,7.25855 6.49286,13.35012 l 6.49288,7.19826 -0.23941,12.60117 c -0.20052,10.55484 0.30804,13.7839 3.13166,19.88442 1.85405,4.0058 4.58268,8.0116 6.06358,8.90178 1.79505,1.079 13.80215,1.079 36.0213,0 38.94843,-1.89141 37.59874,-1.20755 35.76773,-18.12314 -1.10914,-10.24675 -7.0965,-25.09793 -17.38895,-43.13202 -2.85388,-5.00049 -5.16098,-11.48751 -5.76116,-16.19914 -0.5506,-4.32227 -2.51424,-10.99118 -4.36367,-14.8198 -3.33874,-6.91178 -3.34674,-7.0418 -1.12768,-18.33045 1.2292,-6.25312 3.08354,-12.1842 4.12076,-13.1802 2.59101,-2.48804 27.56599,-5.45194 35.02891,-4.15705 l 6.08517,1.05583 0.92594,8.5748 c 0.50927,4.71616 0.5567,13.23653 0.10546,18.93416 -2.88173,36.3825 -2.92949,35.13742 1.5981,41.65618 2.2827,3.28659 4.59918,7.6118 5.14773,9.61157 0.54858,1.99975 2.99856,4.80067 5.44443,6.22425 12.33777,7.18101 19.38544,21.33209 24.0843,48.35902 2.82705,16.26055 4.53456,19.30258 12.07968,21.52057 8.78734,2.58319 67.75652,3.66938 73.8945,1.36112 z m -15.38708,-7.50591 c 0,-3.66868 1.45059,-4.1482 3.9167,-1.2948 2.46612,2.8534 2.05167,4.5318 -1.11906,4.5318 -1.86509,0 -2.79764,-1.079 -2.79764,-3.237 z M 609.37523,609.735 c -5.65261,-9.00433 -10.10885,-9.23745 -13.57896,-0.71036 -2.96034,7.27435 -5.70464,7.74644 -7.98603,1.37374 -2.42465,-6.77295 -7.59656,-11.85213 -11.42283,-11.2181 -2.75099,0.45585 -7.92693,8.13636 -9.9688,14.79248 -0.22042,0.71856 -1.45989,0.83625 -2.75438,0.26151 -2.69274,-1.19557 -4.31369,-6.34651 -7.28185,-23.13982 -3.81797,-21.60146 -10.2481,-34.11378 -22.64674,-44.06795 -3.83022,-3.07507 -6.0354,-6.22843 -6.58694,-9.41921 -0.48131,-2.78449 -1.97777,-5.21841 -3.56731,-5.80214 -5.50675,-2.02226 -6.15602,-12.47455 -1.81645,-29.24152 0.7211,-2.78615 0.80464,-13.60827 0.19365,-25.08679 -0.93365,-17.54019 -1.93958,-23.36989 -7.67245,-44.46443 -9.36977,-34.47672 -9.43035,-34.77111 -8.69927,-42.27583 0.36364,-3.73267 0.14182,-7.75888 -0.49292,-8.94719 -2.04198,-3.82285 -4.48464,1.09421 -5.11619,10.29886 -0.48009,6.99766 0.68664,13.16126 6.41234,33.87475 3.84959,13.92637 7.20742,26.87694 7.46188,28.77905 0.44617,3.3353 -0.1347,3.48543 -16.32329,4.21818 -9.23225,0.4179 -18.04486,0.94136 -19.58358,1.16327 -2.29204,0.33055 -2.71636,-0.40091 -2.34782,-4.04741 0.60658,-6.00222 -3.49825,-6.02695 -5.46785,-0.0331 -0.79845,2.42986 -2.19918,4.98756 -3.11273,5.68378 -4.0329,3.0734 -42.9706,-3.99608 -57.6141,-10.46032 -2.30806,-1.01888 -9.96979,-8.35234 -17.02607,-16.2966 -11.57936,-13.03638 -15.84635,-15.84234 -15.84635,-10.42036 0,1.02649 2.63599,4.97403 5.85776,8.77231 3.22179,3.79828 5.42846,7.4027 4.90375,8.00982 -1.08245,1.25245 -14.1427,-1.78342 -22.89149,-5.32115 -5.30689,-2.14593 -13.04891,-10.90509 -13.04891,-14.76328 0,-3.54283 10.43029,-16.55141 14.52446,-18.11479 5.82336,-2.22371 22.67882,-17.79727 28.5989,-26.42388 6.17591,-8.99942 16.34534,-30.75707 19.91626,-42.61112 5.29096,-17.56401 12.70478,-56.05909 11.14423,-57.86471 -2.70423,-3.12893 -4.35951,1.48638 -9.85671,27.48273 -4.44041,20.99871 -7.0061,29.36817 -13.99463,45.65129 -11.39527,26.55068 -19.53159,35.92845 -44.4763,51.2625 -19.18348,11.7925 -24.04096,15.93988 -24.04096,20.52651 0,4.35019 3.85398,3.5957 7.64164,-1.496 1.82104,-2.44798 3.67219,-4.03422 4.11367,-3.52494 1.54064,1.77718 -8.0084,31.51285 -12.86499,40.06154 -4.97438,8.75599 -6.81183,10.70724 -22.32065,23.70315 -9.50979,7.96888 -10.75319,10.56977 -5.05302,10.56977 3.66474,0 3.68333,0.0623 2.75327,9.21843 -0.51503,5.07016 -2.4609,13.26383 -4.32418,18.20817 -4.44916,11.80615 -8.08574,35.05808 -6.47743,41.41608 0.66768,2.63955 3.49523,8.6961 6.28339,13.45898 6.01111,10.26839 6.17729,11.36767 1.56432,10.34736 -4.81132,-1.06418 -7.68551,2.19151 -7.68551,8.70559 0,7.01922 -1.78768,6.93019 -5.63945,-0.28083 -4.03114,-7.54682 -8.82395,-11.19655 -12.00144,-9.13908 -1.32233,0.85621 -3.43833,4.73804 -4.70226,8.62626 -2.61653,8.04933 -4.46448,8.44186 -14.81148,3.14611 -4.87618,-2.49571 -5.86919,-3.70447 -5.25947,-6.40221 0.4134,-1.8291 1.69996,-4.2363 2.85903,-5.3493 1.73914,-1.67003 2.56828,-1.36511 4.74475,1.74479 1.45052,2.07263 2.63732,4.69106 2.63732,5.81871 0,1.12765 0.93676,2.94981 2.08168,4.04924 1.68709,1.62004 2.2476,1.4987 2.95696,-0.64015 1.15281,-3.47598 -1.65286,-11.08843 -5.71364,-15.50244 -4.81345,-5.23214 -9.15248,-3.76079 -13.04735,4.42435 -5.13726,10.79598 -11.30944,8.95454 -16.29908,-4.86278 -2.58663,-7.16286 -2.98438,-38.42205 -0.59002,-46.36915 1.23092,-4.08556 1.04771,-8.01612 -0.8653,-18.56353 -2.31418,-12.7592 -2.31178,-13.63827 0.0516,-18.93145 4.54305,-10.17493 9.32832,-17.576 11.99792,-18.55635 2.21956,-0.8151 2.64129,-2.59185 2.64129,-11.12781 0,-15.66157 9.52729,-43.34907 15.54277,-45.16919 3.23851,-0.97989 3.43096,-6.20059 0.57392,-15.56999 -1.13742,-3.73009 -2.70457,-15.65696 -3.48253,-26.50416 -0.77796,-10.84718 -2.04685,-24.09213 -2.81974,-29.43319 -3.12915,-21.62391 -0.93302,-43.89252 6.88745,-69.83839 4.70824,-15.62043 5.53845,-24.84405 2.23619,-24.84405 -1.23,0 -2.66018,2.73999 -3.59043,6.87865 -0.85037,3.78325 -3.03375,11.97692 -4.85196,18.20816 -7.85474,26.91924 -8.56675,37.64186 -5.58864,84.16216 0.59722,9.3289 0.5445,9.51996 -1.33972,4.85551 -1.07875,-2.67053 -3.65371,-12.68501 -5.72214,-22.25442 -2.51899,-11.65404 -4.40068,-17.39891 -5.69886,-17.39891 -1.12039,0 -1.9381,1.66101 -1.9381,3.93689 0,7.67831 8.58124,42.35766 13.24328,53.51998 2.60252,6.23123 5.14376,13.69658 5.64721,16.58965 l 0.91537,5.26014 -9.55321,0.0193 c -11.64888,0.0234 -20.66577,2.68441 -32.63387,9.63064 -25.51924,14.81121 -42.34021,29.5744 -69.94134,61.38506 -11.15564,12.85702 -23.43034,26.28061 -27.27711,29.8302 -9.33198,8.61101 -42.473602,26.44564 -60.848976,32.7449 -15.358892,5.2652 -28.431333,8.68407 -29.709497,7.77008 -0.763676,-0.5461 2.999588,-3.66457 8.362815,-6.92994 13.985134,-8.51476 24.49214,-18.82203 51.544408,-50.56456 19.29859,-22.6445 26.25089,-32.10025 36.09161,-49.08778 6.70373,-11.57229 14.96685,-25.41049 18.36249,-30.75155 9.03075,-14.20464 17.59328,-31.66016 25.83509,-52.66727 10.07579,-25.68161 17.80441,-43.15447 22.84538,-51.64882 5.53644,-9.32926 44.73575,-55.76233 52.01224,-61.61049 3.07742,-2.47335 14.72265,-15.18804 25.8783,-28.25486 22.8877,-26.80886 30.6452,-33.60454 49.0697,-42.98566 7.09789,-3.61402 14.46784,-7.99309 16.37768,-9.73128 1.90983,-1.73823 4.34077,-3.1604 5.4021,-3.1604 1.06133,0 10.57588,-3.90231 21.14345,-8.67179 10.56759,-4.76947 22.36115,-9.84209 26.20793,-11.27246 3.84677,-1.43037 11.0857,-4.11137 16.0865,-5.95779 17.9806,-6.63886 48.53501,-5.53672 67.06542,2.41914 2.73579,1.17458 13.15729,4.11846 23.1589,6.54194 10.00161,2.42348 18.78275,5.04165 19.51363,5.81814 0.73089,0.77649 4.01924,1.4118 7.30743,1.4118 3.29236,0 10.55153,2.09067 16.15645,4.65312 5.59786,2.55921 16.47262,6.22196 24.16617,8.13944 44.06244,10.98176 59.7034,17.20627 60.58916,24.11214 0.32798,2.55709 -0.73771,4.03293 -4.19649,5.81153 -8.83428,4.5429 -8.77374,4.39239 -9.64716,23.98341 -0.71547,16.04843 -1.39332,19.8117 -5.57076,30.92707 l -4.7562,12.65527 3.12284,6.27817 c 2.36775,4.76016 3.12283,8.86115 3.12283,16.96103 0,9.86084 0.45002,11.45526 5.84812,20.7199 4.73733,8.13055 6.03432,11.98996 6.82839,20.31905 1.11718,11.71803 4.03942,17.33388 11.46876,22.04019 3.84466,2.43549 5.25069,4.53921 5.94947,8.90177 1.0391,6.48701 6.15991,15.01067 11.40869,18.9899 2.26443,1.71673 8.0662,3.06747 16.03043,3.73214 6.86489,0.57293 13.16686,1.83457 14.0044,2.80363 1.09784,1.27025 0.84505,3.8153 -0.90589,9.12006 -2.35271,7.12797 -2.34021,7.5545 0.39984,13.63697 l 2.82854,6.27886 -6.50588,2.54666 c -3.57825,1.40067 -14.10859,6.20901 -23.40074,10.68524 -9.29217,4.47624 -20.19537,8.64517 -24.22937,9.26435 l -7.3345,1.12575 2.33668,-6.29318 c 3.76358,-10.13604 4.57154,-14.29941 4.88366,-25.16444 0.39229,-13.6572 0.26251,-14.68948 -1.74937,-13.91355 -0.99907,0.38533 -2.38587,6.38902 -3.30243,14.29678 -1.61318,13.91775 -6.85101,29.18659 -13.67017,39.85006 -2.42561,3.79304 -3.57099,8.33608 -4.28454,16.99428 -1.10732,13.43622 -4.20133,28.71781 -7.40903,36.59389 -1.6342,4.01262 -1.78052,5.81771 -0.58381,7.20236 0.87832,1.01626 1.59697,4.16201 1.59697,6.99057 0,4.29319 1.32802,6.40783 8.03841,12.79976 11.7172,11.16112 14.44972,16.34782 15.73175,29.861 0.63826,6.72755 2.56028,14.9655 4.65336,19.94478 8.01876,19.07599 14.94009,37.39149 14.94009,39.53501 0,1.48481 -1.89669,0.51638 -5.43843,-2.77683 -7.2509,-6.74206 -12.79825,-6.26403 -14.65268,1.26264 -0.71279,2.89307 -1.67704,5.21561 -2.14276,5.16123 -0.46573,-0.0544 -2.76201,-3.14978 -5.10285,-6.87863 z m -9.03278,4.01027 c 0,-4.11131 1.49135,-5.43278 3.71807,-3.29455 2.79518,2.6841 2.26929,6.2618 -0.92041,6.2618 -1.78033,0 -2.79766,-1.079 -2.79766,-2.96725 z m -27.97653,1.4249 c 0,-3.18224 3.30924,-9.78717 4.90363,-9.78717 2.67376,0 6.69885,6.13463 5.80113,8.84147 -0.90849,2.73927 -10.70476,3.60471 -10.70476,0.9457 z m 137.34181,-18.96875 c 0.53055,-5.18547 2.43175,-6.20834 5.97206,-3.21306 3.54701,3.00094 1.8731,7.53913 -2.7808,7.53913 -3.11666,0 -3.57089,-0.61575 -3.19126,-4.32607 z m -22.63803,0.22901 c 0,-5.25645 3.5221,-6.82181 7.04625,-3.13165 4.26803,4.46909 3.44712,7.22871 -2.15035,7.22871 -4.30593,0 -4.8959,-0.49371 -4.8959,-4.09706 z m 48.95894,0.86005 c 0,-0.89017 0.27759,-1.61849 0.61685,-1.61849 0.33927,0 1.0059,0.72832 1.48139,1.61849 0.47549,0.89018 0.19791,1.6185 -0.61686,1.6185 -0.81476,0 -1.48138,-0.72832 -1.48138,-1.6185 z m -67.5575,0.56764 c -7.88847,-1.50833 -9.37796,-6.09293 -9.37796,-28.86487 0,-20.70282 -1.24821,-25.15888 -12.47494,-44.53541 -2.83672,-4.89597 -5.96199,-11.19689 -6.94505,-14.00203 -0.98305,-2.80516 -3.31044,-6.75582 -5.17196,-8.77928 -2.92734,-3.18197 -3.38459,-5.14458 -3.38459,-14.52735 0,-7.44094 -1.30271,-15.74501 -4.14755,-26.43831 -2.28116,-8.57448 -3.81203,-16.60166 -3.40195,-17.83816 0.41009,-1.23651 3.46914,-3.04168 6.79788,-4.01148 3.32873,-0.96983 14.06727,-5.80798 23.86341,-10.75146 17.62188,-8.89262 33.42117,-13.70932 44.96986,-13.70987 5.23048,-2.5e-4 5.91975,0.46007 6.66416,4.45061 2.10698,11.295 -4.29131,40.01123 -12.59578,56.53119 -3.84006,7.63898 -4.34118,11.85056 -1.41007,11.85056 2.57167,0 11.75888,12.23035 14.274,19.00209 1.24384,3.34894 3.67937,6.08186 6.73774,7.5604 5.57394,2.69471 7.72994,6.96755 11.91371,23.61112 1.67824,6.67633 5.14129,16.14457 7.69564,21.04054 6.16797,11.82228 13.34274,30.38207 13.34274,34.51524 0,3.05004 -0.33442,2.94524 -4.17018,-1.30677 -3.61786,-4.01046 -4.62079,-4.38519 -7.57223,-2.82924 -1.87111,0.98643 -3.81379,3.29457 -4.31703,5.12917 -1.25731,4.58353 -3.08552,4.18715 -7.27814,-1.57797 -1.96536,-2.7025 -5.29297,-5.94252 -7.39467,-7.20004 -3.32254,-1.98798 -4.21369,-1.96841 -6.82752,0.14986 -1.65342,1.33998 -3.01585,3.30543 -3.02763,4.36767 -0.0112,1.06225 -0.59623,2.98254 -1.29878,4.26733 -1.03036,1.8843 -2.50777,1.02368 -7.64086,-4.45089 -3.49994,-3.73276 -6.7337,-6.78686 -7.18614,-6.78686 -2.2228,0 -6.23402,3.61381 -6.23402,5.61635 0,1.24599 -0.61389,4.13369 -1.3642,6.41707 -1.45607,4.43121 -3.51666,4.92127 -13.03789,3.10076 z M 302.39237,593.9348 c 0,-2.31623 0.7533,-3.18783 2.43189,-2.81379 3.64636,0.8125 4.05302,6.16947 0.46833,6.16947 -2.00185,0 -2.90022,-1.03945 -2.90022,-3.35568 z m -22.38123,-0.42083 c 0,-3.35911 1.65561,-4.46578 3.71807,-2.48529 2.71146,2.60371 2.30715,4.64331 -0.92041,4.64331 -1.53872,0 -2.79766,-0.97111 -2.79766,-2.15802 z m 156.1192,-7.27214 c -1.13402,-2.12304 0.71292,-8.37339 2.47428,-8.37339 2.11078,0 5.39285,6.17729 4.33467,8.15836 -1.01605,1.90217 -5.8266,2.05411 -6.80895,0.21503 z m 44.17326,-5.49973 c -0.95896,-9.62839 5.3081,-10.98469 10.26998,-2.22265 3.05613,5.39676 1.51454,7.72643 -4.71516,7.12563 -4.4015,-0.42451 -5.17696,-1.10896 -5.55482,-4.90298 z m -12.46101,-1.65978 c -3.195,-5.50434 -4.82046,-6.87864 -8.13571,-6.87864 -3.61918,0 -4.40283,0.86967 -6.1981,6.87864 -2.01985,6.76067 -5.63843,9.45548 -5.63843,4.19904 0,-4.11014 -6.80618,-13.50544 -9.78367,-13.50544 -3.20346,0 -7.00225,5.85089 -7.00225,10.78489 0,5.49923 -2.39642,5.99481 -5.18415,1.07208 -1.91078,-3.37417 -2.53236,-7.84319 -2.60563,-18.73419 l -0.0962,-14.30297 -6.5482,-6.95604 c -5.49004,-5.83195 -6.54821,-7.90477 -6.54821,-12.82704 0,-3.93859 -2.72382,-12.14736 -8.27542,-24.93959 -7.7395,-17.83373 -11.76869,-32.57512 -12.95345,-47.39235 -0.40539,-5.07018 -0.0675,-5.71648 3.21959,-6.15743 2.15618,-0.28927 5.71481,1.11091 8.61892,3.3912 2.72052,2.13613 7.99208,4.79972 11.71457,5.91912 3.72249,1.11937 9.60079,3.02845 13.06289,4.24235 8.85851,3.10611 23.06426,5.52618 32.52272,5.54057 4.42379,0.006 8.04854,0.55847 8.055,1.22609 0.007,0.66764 -1.05546,6.03254 -2.35981,11.922 l -2.37155,10.70814 3.68188,8.71391 c 2.02501,4.79264 4.09554,11.99138 4.60114,15.99718 0.57882,4.58617 3.38648,11.7784 7.58182,19.42203 8.04828,14.66344 14.03366,28.11898 14.03366,31.54857 0,2.2755 -0.42111,2.27115 -4.29115,-0.0442 -2.36014,-1.41214 -5.66487,-2.34126 -7.34384,-2.06468 -2.54904,0.41986 -3.11778,1.70445 -3.44723,7.7861 -0.74122,13.68297 -2.4264,14.58566 -8.30916,4.45087 z m -10.15905,4.85551 c 0.0112,-1.11272 0.5933,-3.06878 1.29222,-4.34681 1.05318,-1.92577 1.64837,-1.96111 3.47565,-0.20644 3.3487,3.21561 2.68835,6.57638 -1.29221,6.57638 -1.92339,0 -3.48743,-0.91041 -3.47566,-2.02313 z m 424.68318,-113.0335 c -4.90969,-4.46847 -7.85424,-11.33707 -7.85424,-18.32128 0,-5.08194 0.69637,-6.13354 6.64443,-10.03392 11.30422,-7.41263 34.344,-24.51517 40.06263,-29.73872 2.99293,-2.73381 5.67351,-4.70231 5.95687,-4.37447 1.12696,1.30395 -11.2623,29.76507 -17.0227,39.10529 -6.21513,10.07753 -20.41061,26.74302 -22.77941,26.74302 -0.71166,0 -2.96506,-1.52097 -5.00758,-3.37992 z M 91.208075,468.42175 c 0.628518,-3.22437 3.231757,-8.35627 5.784985,-11.40422 4.73021,-5.64677 16.28648,-14.33819 17.38078,-13.07201 0.82723,0.95713 -8.38716,15.07754 -15.309083,23.46008 -7.15273,8.66207 -9.403804,8.95322 -7.856682,1.01615 z m 25.921235,-40.74388 c 0.17932,-3.29724 0.39173,-6.53377 0.47198,-7.19233 0.23697,-1.9439 15.23882,-12.94483 16.80303,-12.32168 0.78835,0.31406 -2.45675,6.91712 -7.21134,14.67348 -4.75458,7.75636 -9.03733,13.36741 -9.5172,12.46899 -0.47991,-0.89839 -0.7258,-4.33121 -0.54647,-7.62846 z m 27.19565,-42.57119 c 0,-3.52367 1.29215,-6.41201 4.34442,-9.71103 4.19857,-4.53798 6.84619,-5.91489 6.84619,-3.56039 0,2.04849 -8.95736,18.28681 -10.08734,18.28681 -0.6068,0 -1.10327,-2.25693 -1.10327,-5.01539 z M 648.04081,369.9735 c -4.13617,-2.4748 -7.46911,-7.38304 -9.12328,-13.43536 -1.43008,-5.23248 1.37379,-4.63117 7.54707,1.6185 2.85769,2.89307 6.58025,6.55411 8.27231,8.13564 5.64191,5.27334 0.59867,8.04592 -6.6961,3.68122 z M 165.30736,340.97601 c 0,-3.77098 5.29184,-13.24767 6.57107,-11.76754 0.78411,0.90726 -4.6719,15.59552 -5.793,15.59552 -0.42795,0 -0.77807,-1.72259 -0.77807,-3.82798 z m 458.77653,-4.34802 c -0.84474,-1.82629 -1.31769,-4.92167 -1.05101,-6.87864 0.44114,-3.23724 0.76398,-3.04725 3.57968,2.10661 1.70214,3.11562 3.09715,6.21101 3.10002,6.87864 0.0112,2.60269 -4.17515,1.03588 -5.62869,-2.10661 z m 98.30619,-28.27479 c -1.73105,-2.30575 -3.14385,-5.42624 -3.13956,-6.93442 0.0162,-5.7149 3.02635,-14.95775 6.36744,-19.55195 5.09638,-7.00786 27.8811,-19.87587 53.21613,-30.05458 26.5611,-10.67129 45.09266,-20.93049 55.46284,-30.7046 6.96247,-6.56227 19.80166,-24.9812 29.83113,-42.79534 7.34363,-13.04364 5.13242,-3.5636 -4.39607,18.84698 -11.09645,26.0984 -19.28041,42.97464 -24.11131,49.72034 -6.66516,9.30696 -19.29946,19.10532 -38.74308,30.0467 -25.46939,14.33222 -40.78369,24.6088 -46.86069,31.4457 -2.69275,3.02944 -6.46957,6.18113 -8.39296,7.00374 -4.84534,2.07232 -15.26092,-1.73055 -19.23387,-7.02257 z m 125.0579,-3.18774 c -1.14701,-1.32712 -2.8492,-5.15084 -3.78269,-8.49715 -0.93347,-3.34631 -2.87262,-7.38712 -4.30918,-8.97962 -5.75019,-6.37427 -2.7364,-12.00739 12.26061,-22.91656 6.05316,-4.40318 13.83836,-10.70854 17.30046,-14.01189 11.56917,-11.03875 21.56795,-16.91489 41.02271,-24.10856 9.78,-3.61628 25.00699,-13.83748 33.93782,-22.78094 3.57517,-3.58022 6.80345,-6.15874 7.17398,-5.73003 1.82962,2.11697 -8.53091,19.44084 -18.55328,31.02297 -8.28988,9.58002 -16.81223,17.03456 -32.18293,28.15058 -25.53959,18.47006 -32.46123,24.99914 -39.17606,36.95415 -7.4949,13.34384 -9.91322,15.26861 -13.69144,10.89705 z M 185.54497,293.45577 c 3.42413,-3.40786 7.73892,-4.93519 7.73892,-2.7394 0,0.51782 -2.36052,4.28474 -5.24561,8.37095 l -5.2456,7.42944 -0.47309,-4.69006 c -0.35103,-3.48016 0.48101,-5.63963 3.22538,-8.37093 z M 208.67099,268.902 c 0,-2.07515 9.92486,-11.88271 10.89219,-10.76347 0.90761,1.05016 -8.02035,12.21432 -9.76778,12.21432 -0.61844,0 -1.12441,-0.65288 -1.12441,-1.45085 z m 394.74269,-8.64009 c -0.23421,-1.39669 0.677,-5.34213 2.02489,-8.76764 l 2.45074,-6.22823 0.52611,5.4841 c 0.28937,3.01625 0.14179,7.25587 -0.32794,9.42136 -0.91552,4.22056 -3.97131,4.27967 -4.6738,0.0904 z m 8.28489,-49.94746 c -0.17809,-6.26128 2.30207,-9.93442 8.08935,-11.98034 2.89359,-1.02293 3.21283,-0.76916 2.3043,1.8317 -0.58006,1.66053 -2.25577,7.02495 -3.72382,11.92093 -4.21892,14.07041 -4.36303,14.30404 -5.49075,8.90176 -0.55747,-2.67053 -1.08806,-7.47386 -1.17908,-10.67405 z m -353.48758,2.56335 c 2.22273,-3.92505 10.60954,-10.06921 10.60954,-7.77253 0,0.65679 -2.66857,4.34028 -5.93019,8.18554 -6.00953,7.08486 -8.78653,6.83976 -4.67935,-0.41301 z m 560.10886,-22.89171 c -3.46391,-3.62708 -3.21991,-5.74782 0.58927,-5.12185 2.02265,0.33237 3.3071,1.81853 3.59435,4.15882 0.53112,4.32691 -0.70035,4.61039 -4.18362,0.96303 z m -191.39968,-9.53745 c 0,-4.77242 6.09074,-12.06149 10.07859,-12.06149 3.03399,0 2.67621,1.01118 -3.57912,10.11564 -4.89476,7.12416 -6.49947,7.60461 -6.49947,1.94585 z m -335.08214,-3.73879 c 0.9777,-3.56424 9.85693,-9.01858 17.54847,-10.77972 3.87692,-0.88769 4.55048,-0.70269 3.23619,0.88893 -1.96079,2.37456 -20.50498,14.27421 -21.19895,13.60317 -0.26257,-0.25389 -0.0761,-1.92448 0.41429,-3.71238 z m 509.9883,-8.38848 -4.84304,-4.78973 h 3.71461 c 2.25283,0 4.57153,1.41554 5.89217,3.59714 4.51061,7.45111 2.15958,8.03968 -4.76374,1.19259 z M 595.5684,165.64583 c -2.3846,-0.78528 -2.4283,-1.04144 -0.40161,-2.35374 2.24034,-1.45067 12.1698,2.08369 12.1698,4.33182 0,0.96087 -5.80811,-0.0162 -11.76819,-1.97808 z m 49.53651,-7.60579 c 0,-3.94686 2.30264,-5.83793 7.10854,-5.83793 3.779,0 3.33389,2.40535 -1.16353,6.28774 -4.99577,4.3126 -5.94501,4.24078 -5.94501,-0.44981 z m 126.5877,-4.23085 c -0.47884,-0.89648 0.11484,-2.0675 1.3194,-2.60231 2.8212,-1.2526 9.17791,0.57905 9.17791,2.64457 0,2.09504 -9.37583,2.0573 -10.49731,-0.0423 z m -438.52606,0.60708 c 0,-3.05626 6.26645,-12.05839 8.93297,-12.83275 4.85436,-1.40969 18.40962,-0.10378 17.81991,1.71682 -0.28833,0.89018 -5.95357,3.93696 -12.58945,6.77061 -12.99409,5.54876 -14.16343,5.90751 -14.16343,4.34532 z m 212.82204,-2.03661 c -3.324,-2.43696 0.33327,-3.18602 4.69552,-0.96172 4.08744,2.08417 4.10562,2.14254 0.69942,2.24645 -1.9234,0.0587 -4.35112,-0.51946 -5.39494,-1.28473 z m 199.48213,-5.8423 c 0.5196,-2.40478 7.71149,-1.96088 8.42623,0.5201 0.44686,1.55114 -0.67387,1.99574 -4.0799,1.6185 -2.58283,-0.28606 -4.53867,-1.24843 -4.34633,-2.1386 z m -40.91568,-4.04626 c 3.90706,-1.9426 11.55181,-1.9426 12.58944,0 0.54084,1.01254 -2.17773,1.57592 -7.26128,1.50474 -5.83332,-0.0816 -7.33652,-0.50619 -5.32816,-1.50474 z m -219.61578,-8.4035 c -8.63104,-2.1403 -9.91288,-2.94811 -7.49319,-4.72206 5.29978,-3.88548 19.05503,-0.46577 23.59704,5.86647 1.73629,2.42067 1.40587,2.5701 -3.59894,1.62768 -3.03094,-0.57073 -8.65814,-1.81818 -12.50491,-2.77209 z m -98.61729,-3.75908 c 0,-6.02331 15.37289,-11.39769 20.9432,-7.32174 2.63987,1.93164 2.16756,2.15316 -20.59349,9.658 -0.19234,0.0635 -0.34971,-0.98789 -0.34971,-2.33626 z m 51.97338,-8.37327 c -4.81996,-1.37064 -0.91229,-3.68617 6.27267,-3.71692 3.87768,-0.0165 6.88075,1.08002 9.09238,3.32018 l 3.30231,3.34496 -7.69354,-1.00769 c -4.23144,-0.55425 -9.16967,-1.42747 -10.97382,-1.94053 z m 351.95816,264.87069 c 4.37096,-2.0318 6.18854,-8.36565 4.65975,-16.23836 -2.27447,-11.71265 -9.97606,-20.81485 -8.01564,-9.47335 0.83389,4.82414 0.73042,4.94756 -3.29077,3.92564 -6.65048,-1.69007 -9.80989,0.25727 -9.80989,6.04643 0,2.76299 1.04177,6.35554 2.31504,7.98344 2.16902,2.77314 2.13962,2.95982 -0.46629,2.95982 -3.50882,0 -4.66119,1.30917 -3.70095,4.2045 0.86539,2.6093 13.11663,3.00537 18.30875,0.59188 z"
     id="path87"
     inkscape:connector-curvature="0"
     sodipodi:nodetypes="cscccsccsssssccsscssssscscscccccssccsscssccccssccsssccsssscscsscssssssccssssccsccsccccsccscsccsccccccscccscccssccsccsssscccssccsccccccscsscssscscsccccccssscccsscccsssssccccsccccscsscccsccsccscsssccscssssssscscccsccsscscccccccscscscssssscssscssscsccscccssssscccsscccccsscccscccccccsscccssssccccccscccssscscscsscccccsccsscsscssssccccscsccsssccccccscccscccccssccssscssccsscsccsscscsssssscsccssscsssscsccscccssccccssscccsccccccsscsscccsccsccsssssscscsscscssssssscscccscccsssssccccscccccccsssscccscsssssscscccccccsssssscccsscccccccscccssccscccccsccssccssccccscsccccsssssssccssscssccccccscsssscscccccccccscsssccsccccssssccccccccccsccsscsccscsscscccccccsccccscssssccsccssssssscsccccsccsscccssccsccccccssccssscs" />
</svg>
